<?xml version="1.0" standalone="no"?>
<!DOCTYPE svg PUBLIC "-//W3C//DTD SVG 20010904//EN"
 "http://www.w3.org/TR/2001/REC-SVG-20010904/DTD/svg10.dtd">
<svg version="1.0" xmlns="http://www.w3.org/2000/svg"
 width="28.000000pt" height="28.000000pt" viewBox="0 0 28.000000 28.000000"
 preserveAspectRatio="xMidYMid meet">

<g transform="translate(0.000000,28.000000) scale(0.100000,-0.100000)"
fill="#000000" stroke="none">
<path d="M25 255 c-23 -22 -25 -32 -25 -115 0 -83 2 -93 25 -115 22 -23 32
-25 115 -25 127 0 140 13 140 140 0 83 -2 93 -25 115 -22 23 -32 25 -115 25
-83 0 -93 -2 -115 -25z m154 -63 c71 -35 67 -72 -12 -107 -68 -30 -92 -34 -92
-16 0 7 23 22 50 33 28 11 56 25 64 33 12 12 8 16 -24 29 -21 9 -41 16 -46 16
-22 0 -59 21 -53 31 8 14 67 4 113 -19z"/>
</g>
</svg>
