<?xml version="1.0" standalone="no"?>
<!DOCTYPE svg PUBLIC "-//W3C//DTD SVG 20010904//EN"
 "http://www.w3.org/TR/2001/REC-SVG-20010904/DTD/svg10.dtd">
<svg version="1.0" xmlns="http://www.w3.org/2000/svg"
 width="25.000000pt" height="25.000000pt" viewBox="0 0 25.000000 25.000000"
 preserveAspectRatio="xMidYMid meet">

<g transform="translate(0.000000,25.000000) scale(0.100000,-0.100000)"
fill="#000000" stroke="none">
<path d="M161 226 c-7 -8 -20 -12 -30 -9 -10 3 -22 0 -25 -6 -5 -8 -13 -8 -26
-1 -27 15 -47 3 -54 -33 -19 -89 -18 -93 9 -125 57 -68 155 -46 188 42 9 26
13 45 8 41 -8 -5 -38 34 -33 43 1 1 2 16 2 32 0 32 -19 40 -39 16z m25 -23
c-10 -10 -19 5 -10 18 6 11 8 11 12 0 2 -7 1 -15 -2 -18z m-124 -25 c-15 -15
-26 -4 -18 18 5 13 9 15 18 6 9 -9 9 -15 0 -24z m116 -14 c24 -17 29 -53 10
-72 -15 -15 -51 -15 -66 0 -18 18 -15 65 6 77 23 14 24 14 50 -5z m-96 -59 c0
-5 -5 -11 -11 -13 -6 -2 -11 4 -11 13 0 9 5 15 11 13 6 -2 11 -8 11 -13z"/>
<path d="M133 155 c-17 -13 -16 -14 9 -15 30 0 46 15 24 23 -8 3 -22 -1 -33
-8z"/>
<path d="M179 135 c-3 -2 -14 -6 -25 -8 -22 -3 -31 -21 -12 -25 16 -3 56 24
47 32 -3 3 -8 4 -10 1z"/>
</g>
</svg>
